<svg width="24" height="24" viewBox="0 0 24 24" fill="none" stroke="#FFD54F" strokeWidth="2.5" strokeLinecap="round" strokeLinejoin="round" xmlns="http://www.w3.org/2000/svg">
    <path d="M11 2a3 3 0 0 0-3 3v2.83a8.9 8.9 0 0 0-2 1.17H3.17A3 3 0 0 0 2 11c0 1.66 1.34 3 3 3h4.62c.08.7.25 1.38.5 2.03v2.8c0 1.66 1.34 3 3 3 1.66 0 3-1.34 3-3v-2.8a8.9 8.9 0 0 0 2-1.17L20.83 15A3 3 0 0 0 22 12c0-1.66-1.34-3-3-3h-4.62a8.9 8.9 0 0 0-.5-2.03v-2.8A3 3 0 0 0 11 2z" />
    <path d="M12 12v10M12 12l8.66-5M12 12L3.34 7" />
</svg>
